<?xml version="1.0" encoding="utf-8"?>
<!-- Generator: Adobe Illustrator 19.0.1, SVG Export Plug-In . SVG Version: 6.00 Build 0)  -->
<!DOCTYPE svg PUBLIC "-//W3C//DTD SVG 1.1//EN" "http://www.w3.org/Graphics/SVG/1.1/DTD/svg11.dtd">
<svg version="1.1" id="Layer_1" xmlns="http://www.w3.org/2000/svg" xmlns:xlink="http://www.w3.org/1999/xlink" x="0px" y="0px"
	 width="384px" height="640px" viewBox="0 0 384 640" enable-background="new 0 0 384 640" xml:space="preserve">
<path fill="#444444" d="M30,22c0.6,0,1-0.4,1-1v-4c0-0.6-0.4-1-1-1s-1,0.4-1,1v4C29,21.6,29.4,22,30,22z"/>
<path fill="#444444" d="M25,24c0.6,0,1-0.4,1-1v-4c0-0.6-0.4-1-1-1s-1,0.4-1,1v4C24,23.6,24.4,24,25,24z"/>
<path fill="#444444" d="M35,24c0.6,0,1-0.4,1-1v-4c0-0.6-0.4-1-1-1s-1,0.4-1,1v4C34,23.6,34.4,24,35,24z"/>
<path fill="#444444" d="M47,27h-5H18c-0.6,0-1,0.4-1,1v7c0,7.2,5.8,13,13,13c6.8,0,12.4-5.3,12.9-12H45c1.7,0,3-1.3,3-3v-5
	C48,27.4,47.6,27,47,27z M30,46c-6.1,0-11-4.9-11-11v-6h14v4h-2c-0.6,0-1,0.4-1,1v6c0,0.6,0.4,1,1,1h6c0.6,0,1-0.4,1-1v-6
	c0-0.6-0.4-1-1-1h-2v-4h6v6C41,41.1,36.1,46,30,46z M36,35v4h-4v-4H36z M46,33c0,0.6-0.4,1-1,1h-2v-5h3V33z"/>
<path fill="#444444" d="M101,31c2.2,0,4-1.8,4-4s-1.8-4-4-4s-4,1.8-4,4S98.8,31,101,31z M101,25c1.1,0,2,0.9,2,2s-0.9,2-2,2
	s-2-0.9-2-2S99.9,25,101,25z"/>
<path fill="#444444" d="M82,43c0.1,0,0.2,0,0.4-0.1l4.5-1.7l-1.7,4.5c-0.2,0.5,0.1,1.1,0.6,1.3c0.1,0,0.2,0.1,0.4,0.1
	c0.4,0,0.8-0.2,0.9-0.6l2.4-6.2l21-8.3c0.5-0.2,0.8-0.8,0.6-1.3c-0.2-0.5-0.8-0.8-1.3-0.6l-1.5,0.6c0.6-1.1,0.9-2.3,0.9-3.7
	c0-4.4-3.6-8-8-8c-1.3,0-2.6,0.3-3.7,0.9l0.6-1.5c0.2-0.5-0.1-1.1-0.6-1.3c-0.5-0.2-1.1,0.1-1.3,0.6l-8.3,21l-6.2,2.4
	c-0.5,0.2-0.8,0.8-0.6,1.3C81.2,42.8,81.6,43,82,43z M107,27c0,3.3-2.7,6-6,6s-6-2.7-6-6s2.7-6,6-6S107,23.7,107,27z M93.5,29.7
	c0.8,2.2,2.6,4,4.8,4.8l-7.9,3.1L93.5,29.7z"/>
<path fill="#444444" d="M152.9,31.8c0.2,0,0.5,0.1,0.8,0.1c1.3,0,2.8-0.5,3.7-1.3c0.8-0.6,0.9-1.3,0.9-1.7c0-2.3-3.8-4.3-5.6-4.3
	c-2.1,0-3.2,1.7-3.2,3.3C149.5,29.4,150.9,31.4,152.9,31.8z M152.7,26.6c1.2,0,3.5,1.6,3.6,2.3c-0.3,0.4-1.9,1.2-3,1
	c-1-0.2-1.8-1.3-1.8-1.9C151.5,27.8,151.5,26.6,152.7,26.6z"/>
<path fill="#444444" d="M167,27c-2.6,0-3.9-1.2-5.4-2.8c-2-2-4.2-4.2-9.6-4.2c-4.3,0-7.6,2.9-8,6.8c0,0.1,0,0.1,0,0.2v5
	c0,4.6,4.3,12,16,12c10.5,0,16-0.3,16-6.2V33C176,29.1,171.4,27,167,27z M152,22c4.5,0,6.3,1.8,8.2,3.6c1.7,1.7,3.4,3.4,6.8,3.4
	c3.4,0,7,1.5,7,4c0,3.4-2,4-14,4c-10.3,0-14-5.7-14-9.5C146,24.4,148.6,22,152,22z M160,42c-9,0-13-4.8-13.8-8.6
	c2.3,3,6.7,5.6,13.8,5.6c6.8,0,11.5,0,14-1.7v0.5C174,41.3,171.6,42,160,42z"/>
<path fill="#444444" d="M210,24.6c0,11.8,9.6,21.4,21.4,21.4c2,0,3.7-1.3,4.4-3.2l2.7,1.7c0.2,0.1,0.4,0.2,0.5,0.2
	c0.2,0,0.3,0,0.5-0.1c0.3-0.2,0.5-0.5,0.5-0.9v-5.1c0-0.4-0.2-0.7-0.5-0.9c-0.3-0.2-0.7-0.2-1,0.1l-2.6,1.8
	c-0.6-1.9-2.4-3.3-4.5-3.3c-6.5,0-11.7-5.2-11.7-11.7c0-2.1-1.3-3.8-3.1-4.5l1.7-2.6c0.2-0.3,0.2-0.7,0.1-1
	c-0.2-0.3-0.5-0.5-0.9-0.5h-5.1c-0.4,0-0.7,0.2-0.9,0.5c-0.2,0.3-0.2,0.7,0,1l1.7,2.6C211.3,20.8,210,22.5,210,24.6z M238,40.5v1.3
	l-1-0.7L238,40.5z M215.5,18l-0.7,1l-0.7-1H215.5z M214.8,21.8c1.5,0,2.8,1.3,2.8,2.8c0,7.6,6.1,13.7,13.7,13.7
	c1.5,0,2.8,1.3,2.8,2.8c0,1.6-1.2,2.9-2.7,2.9c-10.7,0-19.4-8.7-19.4-19.4C212,23.1,213.3,21.8,214.8,21.8z"/>
<path fill="#444444" d="M286,30h1v3h-1c-0.6,0-1,0.4-1,1v5c0,1.7,1.3,3,3,3s3-1.3,3-3v-5c0-0.6-0.4-1-1-1h-1v-3h1c1.2,0,2-0.8,2-2
	v-4c0-0.6-0.4-1-1-1s-1,0.4-1,1v4h-1v-4c0-0.6-0.4-1-1-1s-1,0.4-1,1v4h-1v-4c0-0.6-0.4-1-1-1s-1,0.4-1,1v4C284,29.2,284.8,30,286,30
	z M289,39c0,0.6-0.4,1-1,1s-1-0.4-1-1v-4h2V39z"/>
<path fill="#444444" d="M274,48h4h18.9c1.7,0,3.1-1.3,3.1-3V33h2c0.6,0,1-0.4,1-1v-5v-5c0-0.6-0.4-1-1-1h-2v-2c0-1.7-1.4-3-3.1-3
	H278h-4c-0.6,0-1,0.4-1,1v30C273,47.6,273.4,48,274,48z M301,31h-1v-3h1V31z M301,23v3h-1v-3H301z M298,19v26c0,0.6-0.5,1-1.1,1H279
	V18h17.9C297.5,18,298,18.4,298,19z M275,18h2v28h-2V18z"/>
<path fill="#444444" d="M352,37c0,1.7,1.3,3,3,3s3-1.3,3-3s-1.3-3-3-3S352,35.3,352,37z M355,36c0.6,0,1,0.4,1,1s-0.4,1-1,1
	s-1-0.4-1-1S354.4,36,355,36z"/>
<circle fill="#444444" cx="352" cy="29" r="2"/>
<path fill="#444444" d="M338.8,45.1c4.2,1.9,8.6,2.9,13.2,2.9s9.1-1,13.2-2.9c0.2-0.1,0.4-0.3,0.5-0.6c0.1-0.3,0.1-0.5-0.1-0.8
	l-2.2-4.2c0,0,0-0.1,0-0.1c0-0.1-0.1-0.1-0.1-0.2l-10.5-20.7c-0.3-0.7-1.4-0.7-1.8,0l-10.5,20.7c0,0.1-0.1,0.1-0.1,0.2
	c0,0,0,0.1,0,0.1l-2.2,4.2c-0.1,0.2-0.1,0.5-0.1,0.8C338.3,44.8,338.5,45,338.8,45.1z M352,46c-4,0-7.8-0.8-11.4-2.3l1.3-2.6
	c3.2,1.3,6.6,1.9,10.1,1.9s6.9-0.7,10.1-1.9l1.3,2.6C359.8,45.2,356,46,352,46z M352,21.2l9.2,18.1c-5.8,2.2-12.6,2.2-18.4,0
	l1.8-3.5c0.5,0.7,1.4,1.2,2.4,1.2c1.7,0,3-1.3,3-3c0-1.6-1.3-3-3-3L352,21.2z M347,33c0.6,0,1,0.4,1,1s-0.4,1-1,1s-1-0.4-1-1
	S346.4,33,347,33z"/>
<path fill="#444444" d="M34,80h-5c-0.6,0-1,0.4-1,1v3h-9c-0.4,0-0.7,0.2-0.9,0.6c-0.2,0.4-0.1,0.8,0.1,1.1l4.8,5.8l0.9,5.5L20,110.7
	c-0.1,0.3,0,0.6,0.2,0.9s0.5,0.4,0.8,0.4h21c0.3,0,0.6-0.2,0.8-0.4c0.2-0.3,0.2-0.6,0.1-0.9L38.1,97l1-3H42c2.2,0,4-1.8,4-4v-5
	c0-0.6-0.4-1-1-1h-4h-6v-3C35,80.4,34.6,80,34,80z M30,82h3v2h-3V82z M40.6,110H22.3l3.4-12h10.5L40.6,110z M44,90c0,1.1-0.9,2-2,2
	h-2.3l2-6H44V90z M37.4,92.5c-0.1,0.1-0.1,0.2-0.1,0.3L36.3,96H25.8L25,90.8c0-0.2-0.1-0.3-0.2-0.5L21.1,86H29h5h5.6L37.4,92.5z"/>
<path fill="#444444" d="M85.1,91.9c0.4,2.8,2.5,6,5.5,7c0,0.6,0.1,1.2,0.3,1.8l1.9,5.8c-1.7,0.8-2.8,2.5-2.8,4.5c0,0.6,0.4,1,1,1h10
	c0.6,0,1-0.4,1-1c0-2-1.1-3.6-2.8-4.5l1.9-5.8c0.2-0.6,0.3-1.2,0.3-1.9c3-1,5-4.1,5.4-6.9c2.9-0.4,5.1-2.9,5.1-5.9
	c0-1.6-0.7-3.2-1.8-4.3c-0.2-0.2-0.6-0.3-0.9-0.3c-0.3,0.1-0.6,0.3-0.7,0.6c-0.6,1.5-2,3.5-2.6,3.9c-0.6-0.5-2-2.5-2.6-3.9
	c-0.1-0.3-0.4-0.5-0.7-0.6c-0.3-0.1-0.7,0-0.9,0.3c-1.1,1.1-1.8,2.7-1.8,4.3c0,3,2.1,5.4,4.9,5.9c-0.3,1.9-1.7,4-3.6,4.9
	c-0.1-0.5-0.3-1-0.5-1.4l-2.4-4.9C97.9,89.6,97,89,96,89c-1.1,0-2,0.6-2.3,1.5l-2.4,4.8c-0.2,0.5-0.4,1-0.5,1.5
	c-2-0.9-3.4-3-3.7-4.9C89.9,91.4,92,89,92,86c0-1.6-0.7-3.2-1.8-4.3c-0.2-0.2-0.6-0.3-0.9-0.3c-0.3,0.1-0.6,0.3-0.7,0.6
	c-0.6,1.5-2,3.5-2.6,3.9c-0.6-0.4-1.9-2.4-2.6-3.9c-0.1-0.3-0.4-0.5-0.7-0.6c-0.3-0.1-0.7,0-0.9,0.3C80.7,82.8,80,84.4,80,86
	C80,89,82.2,91.5,85.1,91.9z M102,86c0-0.6,0.1-1.1,0.4-1.7c0.9,1.5,2.3,3.7,3.6,3.7s2.8-2.1,3.6-3.7c0.2,0.5,0.4,1.1,0.4,1.7
	c0,2.2-1.8,4-4,4S102,88.2,102,86z M92.2,110c0.4-1.2,1.5-2,2.8-2h2c1.3,0,2.4,0.8,2.8,2H92.2z M93.1,96.2l2.4-4.9
	c0,0,0-0.1,0.1-0.1c0-0.1,0.3-0.2,0.5-0.2c0.1,0,0.4,0,0.6,0.3l2.4,4.9c0.6,1.1,0.7,2.6,0.2,3.8l-2,5.9c-0.1,0-0.2,0-0.3,0h-2
	c-0.1,0-0.2,0-0.3,0l-1.9-5.9C92.4,98.8,92.5,97.4,93.1,96.2z M82.4,84.4c0.8,1.5,2.2,3.6,3.6,3.6c1.3,0,2.8-2.1,3.6-3.7
	c0.2,0.5,0.4,1.1,0.4,1.7c0,2.2-1.8,4-4,4s-4-1.8-4-4C82,85.4,82.1,84.9,82.4,84.4z"/>
<path fill="#444444" d="M154,81h-3c-2.2,0-4,1.8-4,4v10c0,2.2,1.8,4,4,4h2v9c0,2.2,1.8,4,4,4h12c2.2,0,4-1.8,4-4V98c0-0.6-0.4-1-1-1
	h-3v-2c0-1.7-1.3-3-3-3h-8c-0.6,0-1,0.4-1,1v4h-2V82C155,81.4,154.6,81,154,81z M149,95V85c0-1.1,0.9-2,2-2h2v14h-2
	C149.9,97,149,96.1,149,95z M171,108c0,1.1-0.9,2-2,2h-12c-1.1,0-2-0.9-2-2v-9h16V108z M159,94h7c0.6,0,1,0.4,1,1v2h-8V94z"/>
<path fill="#444444" d="M167,87.3c0-1.7-2.5-5-3.2-5.9c-0.2-0.2-0.5-0.4-0.8-0.4c-0.3,0-0.6,0.1-0.8,0.4c-0.8,1-3.2,4.3-3.2,5.9
	c0,2,1.8,3.7,4,3.7C165.2,91,167,89.4,167,87.3z M161,87.3c0-0.5,0.9-2,2-3.6c1.1,1.5,2,3.1,2,3.6c0,1-0.9,1.7-2,1.7
	C161.8,89,161,88.1,161,87.3z"/>
<path fill="#444444" d="M232.9,87.4c-0.7-4.2-4.5-7.4-8.9-7.4c-4.4,0-8.1,3-8.9,7.3c-1.8,0.7-3.1,2.6-3.1,4.7c0,2.8,2.2,5,5,5
	l4.8,13.5c0.4,0.9,1.3,1.5,2.3,1.5c0,0,0.1,0,0.1,0c1,0,1.8-0.7,2.1-1.6L231,97c2.8,0,5-2.2,5-5C236,90,234.8,88.2,232.9,87.4z
	 M224.4,109.8c0,0.1-0.1,0.2-0.3,0.2c-0.1,0-0.3,0-0.4-0.2L219.1,97h9.8L224.4,109.8z M231,95h-14c-1.7,0-3-1.3-3-3
	c0-1.4,0.9-2.6,2.2-2.9c0,0,0,0,0,0c0,0,0,0,0,0c0.3-0.1,0.5-0.1,0.8-0.1c1.1,0,2.1,0.6,2.6,1.5c0.2,0.3,0.5,0.5,0.9,0.5
	c0.2,0,0.3,0,0.5-0.1c0.5-0.3,0.6-0.9,0.4-1.4c-0.9-1.5-2.4-2.4-4.1-2.5c0.9-3,3.6-5,6.8-5c3.2,0,5.9,2.1,6.8,5
	c-1.7,0.1-3.3,1-4.1,2.5c-0.3,0.5-0.1,1.1,0.4,1.4c0.2,0.1,0.3,0.1,0.5,0.1c0.3,0,0.7-0.2,0.9-0.5c0.5-0.9,1.5-1.5,2.6-1.5
	c0.3,0,0.5,0,0.7,0.1c1.4,0.4,2.3,1.6,2.3,2.9C234,93.7,232.7,95,231,95z"/>
<path fill="#444444" d="M301,92c0-2.8-2.2-5-5-5c-1.6,0-3.1,0.8-4,2c-0.7-1-1.7-1.7-2.9-1.9c0.3-2.1,1.7-4.1,4.9-4.1
	c0.6,0,1-0.4,1-1s-0.4-1-1-1c-4.4,0-6.6,2.9-6.9,6.1c-1.2,0.2-2.3,1-3.1,1.9c-0.9-1.2-2.4-2-4-2c-2.8,0-5,2.2-5,5
	c0,2.6,2,4.7,4.5,4.9c-0.3,0.6-0.5,1.3-0.5,2.1c0,2.6,2,4.7,4.5,4.9c-0.3,0.6-0.5,1.3-0.5,2.1c0,2.8,2.2,5,5,5s5-2.2,5-5
	c0-0.7-0.2-1.4-0.5-2.1c2.5-0.3,4.5-2.4,4.5-4.9c0-0.7-0.2-1.4-0.5-2.1C299,96.7,301,94.6,301,92z M288,89c1.7,0,3,1.3,3,3
	s-1.3,3-3,3s-3-1.3-3-3S286.3,89,288,89z M277,92c0-1.7,1.3-3,3-3s3,1.3,3,3s-1.3,3-3,3S277,93.7,277,92z M281,99c0-1.7,1.3-3,3-3
	s3,1.3,3,3s-1.3,3-3,3S281,100.7,281,99z M288,109c-1.7,0-3-1.3-3-3s1.3-3,3-3s3,1.3,3,3S289.7,109,288,109z M292,102
	c-1.7,0-3-1.3-3-3s1.3-3,3-3s3,1.3,3,3S293.7,102,292,102z M296,95c-1.7,0-3-1.3-3-3s1.3-3,3-3s3,1.3,3,3S297.7,95,296,95z"/>
<path fill="#444444" d="M349,105c7.1,0,11.6-5.3,13.2-7.5l4.1,3.3c0.2,0.1,0.4,0.2,0.6,0.2c0.1,0,0.3,0,0.4-0.1
	c0.3-0.2,0.6-0.5,0.6-0.9v-8c0-0.4-0.2-0.7-0.6-0.9c-0.3-0.2-0.8-0.1-1.1,0.1l-4.1,3.3c-1.3-1.8-4.6-5.7-9.7-7.1
	c-0.2-1.1-0.1-2.2,0.4-3c0.2-0.3,0.1-0.7,0-1c-0.2-0.3-0.5-0.5-0.9-0.5c-2.8,0-5.3,2.3-6.3,4.6c-5.4,1.9-8.4,7.7-8.5,8
	c-0.1,0.3-0.1,0.6,0,0.9C337.3,96.8,341.5,105,349,105z M366,94.1v3.8l-2.4-1.9L366,94.1z M350.5,85.3c-0.2,1-0.1,2.1,0.2,3.2
	c0.1,0.4,0.4,0.6,0.8,0.7c5,1.1,8.3,5.3,9.3,6.7c-1.2,1.7-5.4,7-11.8,7c-0.2,0-0.4,0-0.7,0c1.2-2.1,1.8-4.4,1.8-7
	c0-2.7-0.8-5.2-2.6-7.7C348.1,87.1,349.3,85.9,350.5,85.3z M346,89.6c1.4,2.1,2.1,4.2,2.1,6.4c0,2.4-0.6,4.6-1.8,6.5
	c-3.8-1.3-6.4-5.2-7.1-6.5C339.9,94.7,342.4,91,346,89.6z"/>
<path fill="#444444" d="M20.4,152.2c-0.2,0.2-0.4,0.5-0.4,0.8v19c0,2.2,1.8,4,4,4h16c2.2,0,4-1.8,4-4v-19c0-0.3-0.1-0.6-0.4-0.8
	c-1-0.8-1.8-1.6-2.3-2.2H42c0.6,0,1-0.4,1-1v-4c0-0.6-0.4-1-1-1H22c-0.6,0-1,0.4-1,1v4c0,0.6,0.4,1,1,1h0.6
	C22.1,150.6,21.4,151.4,20.4,152.2z M23,146h18v2H23V146z M22,153.5c1.7-1.4,2.6-2.7,3.1-3.5h13.8c0.5,0.8,1.4,2.1,3.1,3.5V172
	c0,1.1-0.9,2-2,2H24c-1.1,0-2-0.9-2-2V153.5z"/>
<path fill="#444444" d="M30,163h2l-1.8,2.4c-0.3,0.4-0.2,1.1,0.2,1.4c0.2,0.1,0.4,0.2,0.6,0.2c0.3,0,0.6-0.1,0.8-0.4l3-4
	c0.2-0.3,0.3-0.7,0.1-1S34.4,161,34,161h-2l1.8-2.4c0.3-0.4,0.2-1.1-0.2-1.4c-0.4-0.3-1.1-0.2-1.4,0.2l-3,4c-0.2,0.3-0.3,0.7-0.1,1
	S29.6,163,30,163z"/>
<path fill="#444444" d="M101.3,156.9c1.1,0.7,2.4,1.1,3.7,1.1c3.9,0,7-3.1,7-7s-3.1-7-7-7c-3.5,0-6.4,2.6-6.9,6H83
	c-0.4,0-0.7,0.2-0.9,0.6c-0.2,0.4-0.1,0.8,0.1,1.1L93,164.4v9.6h-6c-0.6,0-1,0.4-1,1s0.4,1,1,1h14c0.6,0,1-0.4,1-1s-0.4-1-1-1h-6
	v-9.6L101.3,156.9z M90.2,158h7.5l-3.8,4.5L90.2,158z M105,146c2.8,0,5,2.2,5,5s-2.2,5-5,5c-0.9,0-1.7-0.2-2.4-0.6l3.2-3.7
	c0.3-0.3,0.3-0.7,0.1-1.1c-0.2-0.4-0.5-0.6-0.9-0.6h-4.9C100.6,147.7,102.6,146,105,146z M102.8,152l-2.5,2.9c0,0,0,0,0,0
	c0,0,0,0,0,0l-0.9,1H88.5l-3.4-4H102.8z"/>
<path fill="#444444" d="M153.7,150.3c-0.4-0.4-1-0.4-1.4,0s-0.4,1,0,1.4l1,1c0.2,0.2,0.5,0.3,0.7,0.3s0.5-0.1,0.7-0.3
	c0.4-0.4,0.4-1,0-1.4L153.7,150.3z"/>
<path fill="#444444" d="M166.7,151.3c-0.4-0.4-1-0.4-1.4,0s-0.4,1,0,1.4l1,1c0.2,0.2,0.5,0.3,0.7,0.3s0.5-0.1,0.7-0.3
	c0.4-0.4,0.4-1,0-1.4L166.7,151.3z"/>
<path fill="#444444" d="M160.3,148.3l-1,1c-0.4,0.4-0.4,1,0,1.4c0.2,0.2,0.5,0.3,0.7,0.3s0.5-0.1,0.7-0.3l1-1c0.4-0.4,0.4-1,0-1.4
	S160.7,147.9,160.3,148.3z"/>
<path fill="#444444" d="M169.3,158.7c0.2,0.2,0.5,0.3,0.7,0.3s0.5-0.1,0.7-0.3l1-1c0.4-0.4,0.4-1,0-1.4s-1-0.4-1.4,0l-1,1
	C168.9,157.7,168.9,158.3,169.3,158.7z"/>
<path fill="#444444" d="M149.3,156.3l-1,1c-0.4,0.4-0.4,1,0,1.4c0.2,0.2,0.5,0.3,0.7,0.3s0.5-0.1,0.7-0.3l1-1c0.4-0.4,0.4-1,0-1.4
	S149.7,155.9,149.3,156.3z"/>
<path fill="#444444" d="M160,144c-8.8,0-16,7.2-16,16c0,1.8,0.3,3.5,0.8,5c0,0.1,0.1,0.3,0.1,0.4c2.2,6.2,8.1,10.6,15,10.6
	c8.8,0,16-7.2,16-16S168.8,144,160,144z M160,174c-5.4,0-10.1-3.1-12.4-7.5c0.6,0.1,1.2,0.2,1.8,0.2c2,0,3.9-0.7,5.4-2
	c1.3,1.4,3.1,2.4,5.2,2.4c2.1,0,3.9-0.9,5.2-2.3c1.6,1.6,3.6,2.3,5.5,2.3c0.6,0,1.1-0.1,1.6-0.2C169.9,171.1,165.3,174,160,174z
	 M164.3,162.6c0,0,0,0.1-0.1,0.1c-0.9,1.4-2.4,2.3-4.2,2.3c-1.8,0-3.3-0.9-4.2-2.3c0,0,0-0.1-0.1-0.1c-0.5-0.8-0.7-1.6-0.7-2.6
	c0-2.8,2.2-5,5-5s5,2.2,5,5C165,160.9,164.7,161.8,164.3,162.6z M173.3,164.3c-2,1.1-5,1-7-1.3c0.4-0.9,0.7-1.9,0.7-3
	c0-3.9-3.1-7-7-7s-7,3.1-7,7c0,1,0.2,2,0.7,2.9c-1.8,1.7-4.3,2.2-7,1.2c-0.4-1.3-0.6-2.7-0.6-4.1c0-7.7,6.3-14,14-14s14,6.3,14,14
	C174,161.5,173.8,162.9,173.3,164.3z"/>
<path fill="#444444" d="M231,176c1.7,0,3-1.3,3-3v-15c1.7,0,3-1.3,3-3v-10c0-0.6-0.4-1-1-1s-1,0.4-1,1v6h-3v-6c0-0.6-0.4-1-1-1
	s-1,0.4-1,1v6h-3v-6c0-0.6-0.4-1-1-1s-1,0.4-1,1v10c0,1.7,1.3,3,3,3v15C228,174.7,229.3,176,231,176z M227,155v-2h8v2
	c0,0.6-0.4,1-1,1h-6C227.4,156,227,155.6,227,155z M232,158v15c0,0.6-0.4,1-1,1s-1-0.4-1-1v-15H232z"/>
<path fill="#444444" d="M211,152c0,2.3,1.2,4.2,3,5.2V173c0,1.7,1.3,3,3,3s3-1.3,3-3v-15.8c1.8-1,3-3,3-5.2v-2c0-3.4-2.6-6-6-6
	s-6,2.6-6,6V152z M218,173c0,0.6-0.4,1-1,1s-1-0.4-1-1v-15.1c0.3,0.1,0.7,0.1,1,0.1s0.7,0,1-0.1V173z M213,150c0-2.2,1.8-4,4-4
	s4,1.8,4,4v2c0,2.2-1.8,4-4,4s-4-1.8-4-4V150z"/>
<path fill="#444444" d="M273,164.7c0.1,2.2,0.9,4.6,2.2,6.7c0.3,0.6,0.9,1.1,1.6,1.2c0.2,0,0.3,0,0.5,0c0.6,0,1.2-0.2,1.7-0.6
	c0,0,0.1-0.1,0.1-0.1l6.4-7h5.1l6.4,7c0,0,0.1,0.1,0.1,0.1c0.5,0.4,1.1,0.6,1.7,0.6c0.2,0,0.3,0,0.5,0c0.7-0.1,1.3-0.6,1.5-1.1
	c1.3-2.2,2.1-4.6,2.2-6.8c0.6-0.4,0.9-1,0.9-1.9c-0.3-3.6-1.7-6.8-4-9.3c0.2-0.4,0.3-0.8,0.3-1.3c-0.1-0.7-0.4-1.3-1-1.7
	c-3-2.3-6.9-3.5-11.2-3.5s-8.2,1.2-11.2,3.5c-0.6,0.4-0.9,1.1-1,1.8c0,0.4,0.1,0.8,0.2,1.2c-2.4,2.6-3.8,5.8-4.1,9.4
	C272,163.7,272.4,164.4,273,164.7z M277.6,170.6c-0.1,0.1-0.3,0.1-0.4,0.1c-0.1,0-0.2-0.1-0.2-0.2c-1.1-1.8-1.7-3.7-1.9-5.5h7.7
	L277.6,170.6z M299,170.6c0,0,0,0.1-0.2,0.1c-0.1,0-0.3,0-0.4-0.1l-5.1-5.6h7.7C300.8,166.8,300.1,168.7,299,170.6z M301.9,163
	l-10.8,0c0,0,0,0-0.1,0l-0.6,0l8.1-8c1.9,2.2,3.1,4.9,3.3,7.9C301.9,163,301.9,163,301.9,163z M278,152.1c2.7-2,6.1-3.1,10-3.1
	s7.3,1.1,10,3.1c0.1,0.1,0.2,0.2,0.2,0.3c0,0.1,0,0.2-0.1,0.3l-10.1,9.9l-10.1-9.9c-0.1-0.1-0.1-0.2-0.1-0.3
	C277.8,152.3,277.8,152.2,278,152.1z M277.4,155l8.2,8l-0.5,0c0,0-0.1,0-0.1,0l-10.8,0c0,0,0,0-0.1,0c0,0,0,0,0,0
	C274.2,160,275.4,157.2,277.4,155z"/>
<path fill="#444444" d="M338.2,161.2c0.6,0.9,1.4,1.7,2.4,2.2c-2,1.5-3.2,2.8-3.3,2.9c-0.3,0.4-0.3,1,0,1.3c0.1,0.1,1.6,1.7,3.9,3.4
	c-1.1,1.4-1.2,3.6-1.2,4c0,0.6,0.4,1,1,1c0,0,0,0,0,0c0.6,0,1-0.4,1-1c0-0.8,0.2-2.3,0.9-2.8c2.5,1.5,5.7,2.8,9.1,2.8
	c3.4,0,6.6-1.3,9.1-2.8c0.7,0.6,0.9,2.1,0.9,2.8c0,0.6,0.4,1,1,1s1-0.4,1-1c0-0.3,0-2.6-1.2-4c2.3-1.6,3.8-3.2,3.9-3.3
	c0.4-0.4,0.4-1,0-1.4c-0.1-0.1-1.3-1.5-3.3-2.9c1-0.5,1.8-1.2,2.4-2.2c1-1.6,1.2-3.7,0.5-5.8c2.3-2.8,2.1-6.9-0.4-9.5
	c-1.4-1.4-3.3-2.1-5.4-2c-0.4,0-0.7,0.2-0.8,0.6s-0.1,0.7,0.1,1c1.2,1.6,1.7,4.9,1.2,5.4c-0.5,0.5-3.8,0-5.4-1.2
	c-0.3-0.2-0.7-0.3-1-0.1c-0.3,0.2-0.6,0.5-0.6,0.8c-0.1,2,0.6,4,2,5.4c1.4,1.4,3.2,2,5,2c1.3,0,2.5-0.4,3.6-1
	c0.2,1.2,0.1,2.3-0.5,3.2c-0.6,1-1.7,1.6-2.8,1.8c-2.5-1.6-5.8-3-9.3-3s-6.8,1.4-9.3,3c-1.1-0.2-2.2-0.8-2.8-1.8
	c-0.6-0.9-0.7-2-0.5-3.1c1.1,0.7,2.3,1,3.6,1c0,0,0,0,0.1,0c1.8,0,3.6-0.7,5-2.1c1.4-1.5,2.1-3.5,2-5.4c0-0.4-0.2-0.7-0.6-0.8
	c-0.3-0.2-0.7-0.1-1,0.1c-1.6,1.2-4.9,1.7-5.4,1.2c-0.5-0.5,0-3.8,1.2-5.4c0.2-0.3,0.3-0.7,0.1-1s-0.5-0.6-0.8-0.6
	c-2.1-0.1-4,0.7-5.4,2.1c-2.5,2.5-2.7,6.6-0.4,9.4C337,157.6,337.1,159.6,338.2,161.2z M357.4,154.5c-0.6-0.6-1-1.3-1.2-2.1
	c2.1,0.9,5,1.3,6.2,0.1c1.2-1.2,0.8-4.1-0.1-6.2c0.8,0.2,1.6,0.6,2.1,1.2c1.9,1.9,1.9,5.1,0,7.1
	C362.6,156.5,359.4,156.4,357.4,154.5z M364.6,167c-0.8,0.7-2.2,2-4,3.1c-0.1,0-0.1,0.1-0.2,0.1c-2.3,1.5-5.3,2.8-8.4,2.8
	c-3.1,0-6-1.3-8.3-2.7c-0.1-0.1-0.2-0.2-0.4-0.2c-1.8-1.1-3.2-2.3-3.9-3.1c1.8-1.7,6.9-6,12.6-6C357.7,161,362.8,165.3,364.6,167z
	 M339.5,147.5c0.6-0.6,1.3-1.1,2.1-1.3c-0.9,2.1-1.3,5-0.1,6.2c1.2,1.2,4.1,0.8,6.2-0.1c-0.2,0.8-0.6,1.6-1.2,2.2
	c-1,0.9-2.3,1.5-3.6,1.5c-1.3,0-2.6-0.5-3.5-1.5C337.6,152.6,337.6,149.4,339.5,147.5z"/>
<path fill="#444444" d="M39,208c-3.8,0-7.3,2.5-8.5,6.1c-0.5-0.1-1-0.1-1.5-0.1c-7.2,0-13,5.8-13,13s5.8,13,13,13s13-5.8,13-13
	c0-0.5,0-1-0.1-1.5c3.6-1.2,6.1-4.6,6.1-8.5C48,212,44,208,39,208z M29,238c-6.1,0-11-4.9-11-11s4.9-11,11-11s11,4.9,11,11
	S35.1,238,29,238z M41.5,223.5c-1.2-4.4-4.7-7.8-9-9c1-2.6,3.6-4.5,6.5-4.5c3.9,0,7,3.1,7,7C46,220,44.2,222.5,41.5,223.5z"/>
<path fill="#444444" d="M27.7,222.7c0.4-0.4,0.4-1,0-1.4l-1-1c-0.4-0.4-1-0.4-1.4,0s-0.4,1,0,1.4l1,1c0.2,0.2,0.5,0.3,0.7,0.3
	S27.5,222.9,27.7,222.7z"/>
<path fill="#444444" d="M38.7,212.3c-0.4-0.4-1-0.4-1.4,0s-0.4,1,0,1.4l1,1c0.2,0.2,0.5,0.3,0.7,0.3s0.5-0.1,0.7-0.3
	c0.4-0.4,0.4-1,0-1.4L38.7,212.3z"/>
<path fill="#444444" d="M33.7,228.3c-0.4-0.4-1-0.4-1.4,0s-0.4,1,0,1.4l1,1c0.2,0.2,0.5,0.3,0.7,0.3s0.5-0.1,0.7-0.3
	c0.4-0.4,0.4-1,0-1.4L33.7,228.3z"/>
<path fill="#444444" d="M23.3,226.3l-1,1c-0.4,0.4-0.4,1,0,1.4c0.2,0.2,0.5,0.3,0.7,0.3s0.5-0.1,0.7-0.3l1-1c0.4-0.4,0.4-1,0-1.4
	S23.7,225.9,23.3,226.3z"/>
<path fill="#444444" d="M28,231c-0.6,0-1,0.4-1,1v1c0,0.6,0.4,1,1,1s1-0.4,1-1v-1C29,231.4,28.6,231,28,231z"/>
<path fill="#444444" d="M33,224c0.6,0,1-0.4,1-1v-1c0-0.6-0.4-1-1-1s-1,0.4-1,1v1C32,223.6,32.4,224,33,224z"/>
<path fill="#444444" d="M42.3,216.3l-1,1c-0.4,0.4-0.4,1,0,1.4c0.2,0.2,0.5,0.3,0.7,0.3s0.5-0.1,0.7-0.3l1-1c0.4-0.4,0.4-1,0-1.4
	S42.7,215.9,42.3,216.3z"/>
<path fill="#444444" d="M93,209v3c0,0.6,0.4,1,1,1s1-0.4,1-1v-3c0-0.6-0.4-1-1-1S93,208.4,93,209z"/>
<path fill="#444444" d="M88,211v3c0,0.6,0.4,1,1,1s1-0.4,1-1v-3c0-0.6-0.4-1-1-1S88,210.4,88,211z"/>
<path fill="#444444" d="M98,211v3c0,0.6,0.4,1,1,1s1-0.4,1-1v-3c0-0.6-0.4-1-1-1S98,210.4,98,211z"/>
<path fill="#444444" d="M85,240h18c2.8,0,5-2.2,5-5c0-0.6-0.4-1-1-1h-6.4c2.7-1.8,4.6-4.7,5.2-8h1.2c1.7,0,3-1.3,3-3v-5
	c0-0.6-0.4-1-1-1h-4H83c-0.6,0-1,0.4-1,1v6c0,4.2,2.1,7.8,5.4,10H81c-0.6,0-1,0.4-1,1C80,237.8,82.2,240,85,240z M108,223
	c0,0.6-0.4,1-1,1h-1v-5h2V223z M84,224v-5h20v5c0,5.5-4.5,10-10,10S84,229.5,84,224z M105.8,236c-0.4,1.2-1.5,2-2.8,2H85
	c-1.3,0-2.4-0.8-2.8-2H105.8z"/>
<path fill="#444444" d="M173,217c0.6,0,1-0.4,1-1v-4c0-0.6-0.4-1-1-1h-5.4l-1.2-2.4c-0.2-0.3-0.5-0.6-0.9-0.6h-11
	c-0.4,0-0.7,0.2-0.9,0.6l-1.2,2.4H147c-0.6,0-1,0.4-1,1v4c0,0.6,0.4,1,1,1h2.1l0.3,4H149c-0.3,0-0.5,0.1-0.7,0.3
	c-0.2,0.2-0.3,0.5-0.3,0.8l1,12c0,0.5,0.5,0.9,1,0.9h0.7l0.3,4.1c0,0.5,0.5,0.9,1,0.9h16c0.5,0,1-0.4,1-0.9l0.3-4.1h0.7
	c0.5,0,1-0.4,1-0.9l1-12c0-0.3-0.1-0.6-0.3-0.8c-0.2-0.2-0.5-0.3-0.7-0.3h-0.4l0.3-4H173z M148,213h5c0.4,0,0.7-0.2,0.9-0.6l1.2-2.4
	h9.8l1.2,2.4c0.2,0.3,0.5,0.6,0.9,0.6h5v2h-24V213z M167.1,238h-14.2l-0.2-3h14.6L167.1,238z M169.1,233h-18.2l-0.8-10h19.8
	L169.1,233z M168.6,221h-17.2l-0.3-4h17.8L168.6,221z"/>
<path fill="#444444" d="M160,225c-1.7,0-3,1.3-3,3s1.3,3,3,3s3-1.3,3-3S161.7,225,160,225z M160,229c-0.6,0-1-0.4-1-1s0.4-1,1-1
	s1,0.4,1,1S160.6,229,160,229z"/>
<path fill="#444444" d="M210.2,219.4c-0.2,0.2-0.3,0.5-0.2,0.8l4,19c0.1,0.5,0.5,0.8,1,0.8h18c0.5,0,0.9-0.3,1-0.8l4-19
	c0.1-0.3,0-0.6-0.2-0.8c-0.2-0.2-0.5-0.4-0.8-0.4h-2v-7c0-0.6-0.4-1-1-1h-3v-1c0-0.6-0.4-1-1-1h-4c-0.6,0-1,0.4-1,1v3h-2v-4
	c0-0.6-0.4-1-1-1h-4c-0.6,0-1,0.4-1,1v2h-3c-0.6,0-1,0.4-1,1v7h-2C210.7,219,210.4,219.1,210.2,219.4z M233,213v6h-2v-6H233z
	 M227,211h2v8h-2V211z M225,215v4h-2v-4H225z M219,210h2v9h-2V210z M215,213h2v6h-2V213z M235.8,221l-3.6,17h-16.4l-3.6-17H235.8z"
	/>
<path fill="#444444" d="M224,235c2.8,0,5-2.2,5-5s-2.2-5-5-5s-5,2.2-5,5S221.2,235,224,235z M224,227c1.7,0,3,1.3,3,3s-1.3,3-3,3
	s-3-1.3-3-3S222.3,227,224,227z"/>
<path fill="#444444" d="M302.7,218.5c0.8-0.8,1.3-1.9,1.3-3.1s-0.5-2.3-1.3-3.1c-0.5-0.5-1.1-0.9-1.8-1.1c-0.2-0.7-0.6-1.4-1.1-1.8
	c-1.7-1.7-4.5-1.7-6.2,0c-1.3,1.3-1.6,3.2-0.9,4.8l-5.2,5.2l-0.3-0.3c-0.4-0.4-1-0.4-1.4,0l-2.7,2.7c-3-0.7-6,0.2-8.3,2.5
	c-3.6,3.6-3.6,9.4,0,13c1.8,1.8,4.2,2.7,6.5,2.7c2.4,0,4.7-0.9,6.5-2.7c2.2-2.2,3.1-5.4,2.5-8.3l2.7-2.7c0.4-0.4,0.4-1,0-1.4
	l-0.2-0.2l5.2-5.2C299.4,220.1,301.3,219.8,302.7,218.5z M288.4,228c-0.3,0.3-0.4,0.6-0.3,1c0.7,2.4,0,5.1-1.8,6.9
	c-2.8,2.8-7.4,2.8-10.2,0c-2.8-2.8-2.8-7.4,0-10.2c1.9-1.9,4.5-2.6,6.9-1.8c0.4,0.1,0.7,0,1-0.3l2.4-2.4l4.4,4.4L288.4,228z
	 M297,217.5l-5.7,5.7l-2.4-2.4l5.7-5.7c0.3-0.3,0.4-0.9,0.1-1.3c-0.7-1-0.5-2.2,0.3-3c0.9-0.9,2.5-0.9,3.5,0.1
	c0.4,0.4,0.6,0.9,0.7,1.3c0.1,0.4,0.4,0.8,0.8,0.8c0.4,0.1,1,0.3,1.3,0.7c0.4,0.4,0.7,1,0.7,1.7s-0.2,1.3-0.7,1.7
	c-0.9,0.8-2.2,0.9-3.1,0.3C297.9,217.1,297.3,217.2,297,217.5z"/>
<path fill="#444444" d="M339,232.7c0.3,3,2.8,5.3,6,5.3h14c3.1,0,5.6-2.3,6-5.3c1.7-0.6,3-2.3,3-4.2c0-1.2-0.5-2.3-1.3-3.1
	c0.8-0.5,1.3-1.4,1.3-2.4c0-1.7-1.3-3-3-3h-0.1c-0.5-5.6-5.2-10-10.9-10h-4c-5.7,0-10.4,4.4-10.9,10H339c-1.7,0-3,1.3-3,3
	c0,1,0.5,1.9,1.3,2.4c-0.8,0.8-1.3,1.9-1.3,3.1C336,230.4,337.3,232.1,339,232.7z M359,236h-14c-1.9,0-3.4-1.3-3.9-3h21.7
	C362.4,234.7,360.9,236,359,236z M363.5,231h-23c-1.4,0-2.5-1.1-2.5-2.5s1.1-2.5,2.5-2.5h12.2l3.7,2.8c0.2,0.1,0.4,0.2,0.6,0.2
	s0.4-0.1,0.6-0.2l3.7-2.8h2.2c1.4,0,2.5,1.1,2.5,2.5S364.9,231,363.5,231z M350,212h4c4.6,0,8.4,3.5,8.9,8h-21.9
	C341.6,215.5,345.4,212,350,212z M339,222h26c0.6,0,1,0.4,1,1s-0.4,1-1,1h-4c-0.2,0-0.4,0.1-0.6,0.2l-3.4,2.5l-3.4-2.5
	c-0.2-0.1-0.4-0.2-0.6-0.2h-14c-0.6,0-1-0.4-1-1S338.4,222,339,222z"/>
<path fill="#444444" d="M346.7,216.3c-0.4-0.4-1-0.4-1.4,0s-0.4,1,0,1.4l1,1c0.2,0.2,0.5,0.3,0.7,0.3s0.5-0.1,0.7-0.3
	c0.4-0.4,0.4-1,0-1.4L346.7,216.3z"/>
<path fill="#444444" d="M351.3,214.3l-1,1c-0.4,0.4-0.4,1,0,1.4c0.2,0.2,0.5,0.3,0.7,0.3s0.5-0.1,0.7-0.3l1-1c0.4-0.4,0.4-1,0-1.4
	S351.7,213.9,351.3,214.3z"/>
<path fill="#444444" d="M358,215c-0.6,0-1,0.4-1,1v1c0,0.6,0.4,1,1,1s1-0.4,1-1v-1C359,215.4,358.6,215,358,215z"/>
<path fill="#444444" d="M47,273.2c-2.6,0-4.5,1-5.7,2.9c-1.2-0.7-2.6-1-4-1c-2,0.1-3.9,1.1-5.1,2.7l-2.4,3c0,0-0.1,0.1-0.1,0.1
	c-0.1,0.1-0.2,0.2-0.2,0.4l-10.1,12.8c-0.1,0-0.1,0.1-0.2,0.1c-0.1,0.1-0.2,0.3-0.2,0.4l-2.1,2.6c-1.3,1.7-1.2,4,0.3,5.4
	c0.8,0.8,1.8,1.2,2.9,1.2c0.9,0,1.7-0.3,2.5-0.8l19.5-15.3c1.6-1.2,2.5-3.1,2.7-5.1c0.1-2-0.6-3.9-2-5.3c0.8-1.4,2.2-2.1,4.2-2.1
	c0.6,0,1-0.4,1-1S47.6,273.2,47,273.2z M42.8,282.5c-0.1,1.4-0.8,2.7-1.9,3.6l-9.1,7.1l-2.6-2.6c-0.4-0.4-1-0.4-1.4,0s-0.4,1,0,1.4
	l2.5,2.5l-8.8,6.9c-0.9,0.6-2.1,0.6-2.8-0.2c-0.8-0.8-0.8-1.9-0.1-2.8l1.6-2l1.3,1.3c0.2,0.2,0.5,0.3,0.7,0.3s0.5-0.1,0.7-0.3
	c0.4-0.4,0.4-1,0-1.4l-1.4-1.4l9.2-11.7l3.1,3.1c0.2,0.2,0.5,0.3,0.7,0.3s0.5-0.1,0.7-0.3c0.4-0.4,0.4-1,0-1.4l-3.2-3.2l2-2.6
	c0.9-1.1,2.2-1.8,3.6-1.9c0.1,0,0.2,0,0.3,0c1.4,0,2.6,0.5,3.6,1.5C42.3,279.7,42.9,281,42.8,282.5z"/>
<path fill="#444444" d="M81,300h30c0.6,0,1-0.4,1-1v-14c0-0.1,0-0.2-0.1-0.3c0,0,0-0.1,0-0.1c0-0.1-0.1-0.1-0.1-0.2
	c0,0,0-0.1-0.1-0.1c-0.1-0.1-0.2-0.1-0.3-0.2c0,0,0,0,0,0c0,0,0,0,0,0l-19-8c-0.1-0.1-0.3-0.1-0.4-0.1c-8.2,0-12,4.7-12,9v14
	C80,299.6,80.4,300,81,300z M90,286v5h-8v-5H90z M82,298v-5h8c0,1.7,1.3,3,3,3s3-1.3,3-3h14v5H82z M110,291H96v-5h14V291z M91.8,278
	l14.2,6H95c-0.6,0-1,0.4-1,1v8c0,0.6-0.4,1-1,1s-1-0.4-1-1v-8c0-0.6-0.4-1-1-1h-8.9C82.6,281.4,85,278.1,91.8,278z"/>
<path fill="#444444" d="M151,292v11c0,0.6,0.4,1,1,1h16c0.6,0,1-0.4,1-1v-11c0-3-2.1-5.5-5-5.9V278c0.6,0,1-0.4,1-1v-4
	c0-0.6-0.4-1-1-1h-8c-0.6,0-1,0.4-1,1v4c0,0.6,0.4,1,1,1v8.1C153.1,286.5,151,289,151,292z M153,302v-7h14v7H153z M157,274h6v2h-6
	V274z M157,288c0.6,0,1-0.4,1-1v-9h4v9c0,0.6,0.4,1,1,1c2.2,0,4,1.8,4,4v1h-14v-1C153,289.8,154.8,288,157,288z"/>
<path fill="#444444" d="M212,285v15c0,2.2,1.8,4,4,4h12c2.2,0,4-1.8,4-4v-4h2c1.7,0,3-1.3,3-3v-6c0-0.6-0.4-1-1-1h-4v-1
	c1.2-0.9,2-2.3,2-4c0-2.8-2.2-5-5-5c-0.2,0-0.4,0-0.7,0.1c-1.1-2.4-3.6-4.1-6.3-4.1s-5.2,1.6-6.3,4.1c-0.2,0-0.5-0.1-0.7-0.1
	c-2.8,0-5,2.2-5,5C210,282.6,210.8,284.1,212,285z M235,288v5c0,0.6-0.4,1-1,1h-2v-6H235z M230,300c0,1.1-0.9,2-2,2h-12
	c-1.1,0-2-0.9-2-2v-14.1c0.3,0.1,0.7,0.1,1,0.1h1v5c0,1.7,1.3,3,3,3s3-1.3,3-3v-5h7c0.3,0,0.7,0,1-0.1V300z M215,278
	c0.2,0,0.6,0.1,1.1,0.2c0.5,0.1,1.1-0.2,1.2-0.7c0.6-2,2.5-3.5,4.7-3.5s4.1,1.4,4.7,3.5c0.2,0.5,0.7,0.8,1.2,0.7
	c0.4-0.1,0.8-0.2,1.1-0.2c1.7,0,3,1.3,3,3s-1.3,3-3,3h-8c-0.6,0-1,0.4-1,1v6c0,0.6-0.4,1-1,1s-1-0.4-1-1v-6c0-0.6-0.4-1-1-1h-2
	c-1.7,0-3-1.3-3-3S213.3,278,215,278z"/>
<path fill="#444444" d="M301.1,292.2l-0.3,0.1c-0.5,0.1-1.3,0.3-2.3,0.4c2.4-1.3,4-2.8,4.6-4.3c0.7-2.1,0-4.1-1.1-5
	c-0.8-0.7-1.7-0.8-2.6-0.3c-1.4,0.7-5.5,3-13.9,1.5c-2.7-0.4-4.7-1.1-6.4-2.2c-0.6-2-0.8-4.4-1-7.5c0-0.3-0.1-0.5-0.3-0.7
	c-0.2-0.2-0.5-0.3-0.7-0.2l-3.5,0.3c-0.5,0-0.9,0.5-0.9,1l0.2,4.8c-0.3,1-1.5,6.3-0.3,11.3c1.6,6.9,9.8,10.7,16.9,11
	c0.4,0,0.8,0,1.2,0c6,0,10.9-1.5,12.6-4c1.3-1.8,1-3.9,0.3-5C302.9,292.4,302,292,301.1,292.2z M285.1,286.4
	c9.1,1.6,13.7-0.8,15.3-1.7c0,0,0.2,0.1,0.4,0.3c0.4,0.6,0.7,1.6,0.3,2.6c-0.5,1.2-2.6,3.1-7.1,4.8c-1.9-0.3-4.3-1-7-2.2
	c-3.5-1.5-5.5-3.2-6.8-5.2C281.7,285.7,283.3,286.1,285.1,286.4z M301.6,297.2c-1.1,1.7-5.6,3.3-12,3.1c-6.4-0.2-13.6-3.5-15.1-9.4
	c-1.2-5,0.3-10.4,0.3-10.5c0-0.1,0-0.2,0-0.3l-0.2-4l1.5-0.1c0.2,2.6,0.5,4.9,1,6.9c0,0.2,0,0.4,0.2,0.6c1.2,3.6,3.6,6.4,8.9,8.7
	c8.1,3.6,13,2.5,14.9,2.1l0.3-0.1c0.1,0,0.3,0.2,0.3,0.2C302.2,295,302.3,296.2,301.6,297.2z"/>
<path fill="#444444" d="M351,273v5c0,0.6,0.4,1,1,1s1-0.4,1-1v-5c0-0.6-0.4-1-1-1S351,272.4,351,273z"/>
<path fill="#444444" d="M346,276v4c0,0.6,0.4,1,1,1s1-0.4,1-1v-4c0-0.6-0.4-1-1-1S346,275.4,346,276z"/>
<path fill="#444444" d="M356,276v4c0,0.6,0.4,1,1,1s1-0.4,1-1v-4c0-0.6-0.4-1-1-1S356,275.4,356,276z"/>
<path fill="#444444" d="M337,285h1v1c0,5.7,3.4,10.6,8.3,12.8l-2.2,3.7c-0.3,0.5-0.1,1.1,0.3,1.4c0.2,0.1,0.3,0.1,0.5,0.1
	c0.3,0,0.7-0.2,0.9-0.5l2.4-4c1.2,0.3,2.4,0.5,3.7,0.5s2.5-0.2,3.7-0.5l2.4,4c0.2,0.3,0.5,0.5,0.9,0.5c0.2,0,0.4,0,0.5-0.1
	c0.5-0.3,0.6-0.9,0.3-1.4l-2.2-3.7c4.9-2.2,8.3-7.1,8.3-12.8v-1h1c0.6,0,1-0.4,1-1s-0.4-1-1-1h-2h-26h-2c-0.6,0-1,0.4-1,1
	S336.4,285,337,285z M364,285v1c0,6.6-5.4,12-12,12s-12-5.4-12-12v-1H364z"/>
<path fill="#444444" d="M350,289h4c0.6,0,1-0.4,1-1s-0.4-1-1-1h-4c-0.6,0-1,0.4-1,1S349.4,289,350,289z"/>
<path fill="#444444" d="M31,341v-4c0-0.6-0.4-1-1-1s-1,0.4-1,1v4c0,0.6,0.4,1,1,1S31,341.6,31,341z"/>
<path fill="#444444" d="M26,343v-4c0-0.6-0.4-1-1-1s-1,0.4-1,1v4c0,0.6,0.4,1,1,1S26,343.6,26,343z"/>
<path fill="#444444" d="M36,343v-4c0-0.6-0.4-1-1-1s-1,0.4-1,1v4c0,0.6,0.4,1,1,1S36,343.6,36,343z"/>
<path fill="#444444" d="M47,347H35v6h2c0.6,0,1,0.4,1,1v6c0,0.6-0.4,1-1,1h-6c-0.6,0-1-0.4-1-1v-6c0-0.6,0.4-1,1-1h2v-6H18
	c-0.6,0-1,0.4-1,1v7c0,7.2,5.8,13,13,13c6.8,0,12.4-5.3,12.9-12H45c1.7,0,3-1.3,3-3v-5C48,347.4,47.6,347,47,347z M46,353
	c0,0.6-0.4,1-1,1h-2v-5h3V353z"/>
<path fill="#444444" d="M85.8,367c0,0,0.1,0,0.2,0c0.4,0,0.8-0.2,0.9-0.6l2.4-6.2l21-8.3c0.6-0.2,0.8-0.8,0.6-1.3
	c-0.2-0.5-0.8-0.8-1.3-0.6l-1.5,0.6c0.6-1.1,0.9-2.3,0.9-3.7c0-4.4-3.6-8-8-8c-1.3,0-2.6,0.3-3.7,0.9l0.6-1.5
	c0.2-0.5-0.1-1.1-0.6-1.3s-1.1,0.1-1.3,0.6l-8.3,21l-6.2,2.4c-0.5,0.2-0.8,0.8-0.6,1.3c0.3,0.5,0.7,0.7,1.1,0.7c0.1,0,0.2,0,0.4-0.1
	l4.5-1.7l-1.7,4.5C85,366.2,85.3,366.8,85.8,367z M101,344c1.7,0,3,1.3,3,3s-1.3,3-3,3s-3-1.3-3-3S99.3,344,101,344z M93.5,349.7
	c0.8,2.2,2.6,4,4.8,4.8l-7.9,3.1L93.5,349.7z"/>
<path fill="#444444" d="M144,352.8v0.2c0,4.6,4.3,12,16,12c10.5,0,16-0.3,16-6.2v-1.5c-2.9,2.7-8.8,2.7-16,2.7
	C151.5,360,146.5,356.7,144,352.8z"/>
<path fill="#444444" d="M167,346c-2.6,0-3.9-1.2-5.5-2.8c-1.9-2-4.2-4.2-9.5-4.2c-4.6,0-8,3.2-8,7.5c0,4.7,4.3,11.5,16,11.5
	c10.3,0,16,0,16-6C176,348.1,171.4,346,167,346z M157.3,349.6c-0.8,0.7-2.3,1.2-3.6,1.2c-0.3,0-0.6,0-0.9-0.1
	c-1.8-0.4-3.4-2.2-3.4-3.9c0-1.6,1.1-3.3,3.2-3.3c1.8,0,5.6,2,5.6,4.3C158.3,348.3,158.1,349,157.3,349.6z"/>
<path fill="#444444" d="M239.5,357.8c-0.3-0.2-0.7-0.2-1,0l-2.6,1.7c-0.7-1.8-2.4-3.2-4.5-3.2c-6.5,0-11.7-5.3-11.7-11.7
	c0-2.1-1.3-3.8-3.2-4.5l1.7-2.6c0.2-0.3,0.2-0.7,0-1c-0.1-0.3-0.5-0.5-0.8-0.5h-5.1c-0.4,0-0.7,0.2-0.9,0.5c-0.2,0.3-0.2,0.7,0,1
	l1.7,2.6c-1.8,0.7-3.1,2.5-3.1,4.5c0,11.8,9.6,21.4,21.4,21.4c2.1,0,3.8-1.3,4.5-3.2l2.6,1.7c0.2,0.1,0.4,0.2,0.6,0.2
	c0.2,0,0.3,0,0.5-0.1c0.3-0.2,0.5-0.5,0.5-0.9v-5.1C240,358.3,239.8,357.9,239.5,357.8z"/>
<path fill="#444444" d="M297.1,336H280c-0.6,0-1,0.4-1,1v30c0,0.6,0.4,1,1,1h17.1c1.6,0,2.9-1.3,2.9-3v-10h2c0.6,0,1-0.4,1-1v-4
	c0-0.6-0.4-1-1-1h-2v-2h2c0.6,0,1-0.4,1-1v-4c0-0.6-0.4-1-1-1h-2v-2C300,337.3,298.7,336,297.1,336z M294,348c0,1.1-0.9,2-2,2h-1v3
	c0.6,0,1,0.4,1,1v6c0,1.1-0.9,2-2,2s-2-0.9-2-2v-6c0-0.6,0.4-1,1-1v-3h-1c-1.1,0-2-0.9-2-2v-4c0-0.6,0.4-1,1-1s1,0.4,1,1v4h1v-4
	c0-0.6,0.4-1,1-1s1,0.4,1,1v4h1v-4c0-0.6,0.4-1,1-1s1,0.4,1,1V348z"/>
<path fill="#444444" d="M276,336h-2c-0.6,0-1,0.4-1,1v30c0,0.6,0.4,1,1,1h2c0.6,0,1-0.4,1-1v-30C277,336.4,276.6,336,276,336z"/>
<path fill="#444444" d="M362.4,358.2l0.3-0.2l-9.8-19.5c-0.3-0.7-1.4-0.7-1.8,0l-9.9,19.4l0.4,0.3c3,2.1,7.3,2.8,10.4,2.8
	C355.7,361,359.8,359.9,362.4,358.2z M358,355c0,1.7-1.3,3-3,3s-3-1.3-3-3s1.3-3,3-3S358,353.3,358,355z M348.5,354
	c-0.8,0-1.5-0.7-1.5-1.5s0.7-1.5,1.5-1.5s1.5,0.7,1.5,1.5S349.3,354,348.5,354z M350,347c0-1.1,0.9-2,2-2s2,0.9,2,2c0,1.1-0.9,2-2,2
	S350,348.1,350,347z"/>
<path fill="#444444" d="M340.3,359.7l-2,4c-0.1,0.2-0.1,0.5-0.1,0.8c0.1,0.3,0.3,0.5,0.5,0.6c4.2,1.9,8.7,2.9,13.3,2.9
	s9.1-1,13.2-2.9c0.2-0.1,0.4-0.3,0.5-0.6c0.2-0.2,0.1-0.5,0-0.8l-2-4l-0.1,0.1c-3,2-7.5,3.2-11.6,3.2c-3.4,0-8.2-0.8-11.6-3.2
	L340.3,359.7z"/>
<path fill="#444444" d="M42,432c0.3,0,0.6-0.2,0.8-0.4c0.2-0.3,0.2-0.6,0.1-0.9L38.4,418H23.7L20,430.7c0,0.3,0,0.7,0.2,0.9
	s0.5,0.4,0.8,0.4H42z"/>
<path fill="#444444" d="M33,400h-3c-0.6,0-1,0.4-1,1v3H19c-0.4,0-0.7,0.2-0.9,0.6c-0.2,0.3-0.1,0.7,0.1,1l4.8,5.8l0.8,4.6h14.6
	l0.7-2H42c2.2,0,4-1.8,4-4v-5c0-0.6-0.4-1-1-1h-4h-7v-3C34,400.4,33.6,400,33,400z M41.7,406H44v4c0,1.1-0.9,2-2,2h-2.3L41.7,406z"
	/>
<path fill="#444444" d="M85.1,411.9c0.4,2.8,2.5,5.9,5.4,6.9c0,0.6,0.1,1.2,0.3,1.8l2,5.9c-1.7,0.9-2.8,2.5-2.8,4.5c0,0.6,0.4,1,1,1
	h10c0.6,0,1-0.4,1-1c0-2-1.1-3.6-2.8-4.5l2-5.9c0.2-0.6,0.3-1.2,0.3-1.8c2.9-1,5-4.2,5.4-6.9c2.9-0.4,5.1-2.9,5.1-5.9
	c0-1.6-0.7-3.2-1.8-4.3c-0.2-0.2-0.6-0.3-0.9-0.3s-0.6,0.3-0.8,0.6c-0.5,1.4-1.9,3.5-2.5,3.9c-0.6-0.5-2-2.5-2.5-3.9
	c-0.1-0.3-0.4-0.5-0.7-0.6c-0.3-0.1-0.7,0-0.9,0.3c-1.2,1.1-1.9,2.7-1.9,4.3c0,2.9,2.1,5.4,4.9,5.9c-0.3,1.9-1.7,4-3.6,4.9
	c-0.1-0.5-0.3-1-0.5-1.4l-2.4-4.9c-0.5-0.9-1.4-1.5-2.4-1.5s-1.9,0.6-2.3,1.4l-2.4,4.9c-0.2,0.5-0.4,1-0.5,1.4
	c-1.9-0.9-3.3-3-3.6-4.9c2.7-0.4,4.8-2.9,4.8-5.8c0-1.6-0.7-3.2-1.8-4.3c-0.3-0.2-0.6-0.3-0.9-0.3c-0.4,0.1-0.6,0.3-0.8,0.6
	c-0.5,1.4-1.9,3.5-2.5,3.9c-0.6-0.4-1.9-2.4-2.5-3.9c-0.2-0.3-0.4-0.5-0.8-0.6c-0.3-0.1-0.7,0-0.9,0.3c-1.1,1.1-1.8,2.7-1.8,4.3
	C80,409,82.2,411.5,85.1,411.9z"/>
<path fill="#444444" d="M154,401h-3c-2.2,0-4,1.8-4,4v10c0,2.2,1.8,4,4,4h2v9c0,2.2,1.8,4,4,4h12c2.2,0,4-1.8,4-4v-10
	c0-0.6-0.4-1-1-1h-3v-1c0-1.7-1.3-3-3-3h-8c-0.6,0-1,0.4-1,1v3h-2v-15C155,401.4,154.6,401,154,401z"/>
<path fill="#444444" d="M167,407.3c0-1.7-2.5-5-3.2-5.9l-0.8-1l-0.8,1c-0.8,1-3.2,4.3-3.2,5.9c0,2.1,1.8,3.7,4,3.7
	S167,409.4,167,407.3z"/>
<path fill="#444444" d="M232.8,407.4c-0.7-4.3-4.4-7.4-8.8-7.4s-8.1,3.1-8.8,7.4c-1.9,0.7-3.2,2.5-3.2,4.6c0,2.8,2.2,5,5,5h14
	c2.8,0,5-2.2,5-5C236,409.9,234.7,408.1,232.8,407.4z"/>
<path fill="#444444" d="M226.2,430.4l4.1-11.4h-12.6l4.1,11.4c0.3,1,1.2,1.6,2.2,1.6S225.9,431.4,226.2,430.4z"/>
<path fill="#444444" d="M275,412c0,2.6,2,4.7,4.5,4.9c-0.3,0.7-0.5,1.4-0.5,2.1c0,2.6,2,4.7,4.5,4.9c-0.3,0.7-0.5,1.4-0.5,2.1
	c0,2.8,2.2,5,5,5s5-2.2,5-5c0-0.7-0.2-1.4-0.5-2.1c2.5-0.2,4.5-2.3,4.5-4.9c0-0.7-0.2-1.4-0.5-2.1c2.5-0.2,4.5-2.3,4.5-4.9
	c0-2.8-2.2-5-5-5c-1.6,0-3.1,0.8-4,2c-0.7-1-1.7-1.7-2.9-1.9c0.3-2.1,1.7-4.1,4.9-4.1c0.6,0,1-0.4,1-1c0-0.6-0.4-1-1-1
	c-4.4,0-6.6,2.9-6.9,6.1c-1.3,0.2-2.4,0.9-3.1,1.9c-0.9-1.2-2.4-2-4-2C277.2,407,275,409.2,275,412z"/>
<path fill="#444444" d="M352.8,403.4c-0.1-0.2-0.4-0.4-0.8-0.4c-2.4,0-4.6,1.8-5.9,3.7c2.3,2.4,3.9,6.3,3.9,9.3
	c0,2.6-0.7,6.3-2.7,8.9c0.5,0.1,1,0.1,1.6,0.1c7.1,0,11.6-5.3,13.2-7.5l4.1,3.3c0.2,0.1,0.4,0.2,0.6,0.2c0.1,0,0.3,0,0.4-0.1
	c0.3-0.2,0.6-0.5,0.6-0.9v-8c0.2-0.4,0-0.7-0.4-0.9c-0.3-0.2-0.8-0.1-1.1,0.1l-4.2,3.3c-1.3-1.8-4.6-5.7-9.7-7.1
	c-0.2-1.1,0-2.2,0.4-3C353,404.1,353,403.7,352.8,403.4z"/>
<path fill="#444444" d="M337,416.4c0.1,0.3,3,5.9,8.2,7.8c2.1-2.1,2.8-5.7,2.8-8.2c0-2.6-1.5-6-3.5-8c-4.7,2.2-7.4,7.3-7.5,7.5
	C336.9,415.8,336.9,416.1,337,416.4z"/>
<path fill="#444444" d="M20,492c0,2.2,1.8,4,4,4h16c2.2,0,4-1.8,4-4v-19c0-0.3-0.1-0.6-0.4-0.8c-1.5-1.2-2.4-2.3-3-3.2H42
	c0.6,0,1-0.4,1-1v-3c0-0.6-0.4-1-1-1H22c-0.6,0-1,0.4-1,1v3c0,0.6,0.4,1,1,1h1.4c-0.6,0.9-1.5,2.1-3,3.2c-0.3,0.2-0.4,0.5-0.4,0.8
	V492z M29.2,481.4l3-4c0.3-0.4,1-0.5,1.4-0.2c0.4,0.3,0.5,1,0.2,1.4L32,481h2c0.4,0,0.7,0.2,0.9,0.6c0.2,0.4,0.1,0.7-0.1,1l-3,4
	c-0.2,0.3-0.5,0.4-0.8,0.4c-0.2,0-0.4-0.1-0.6-0.2c-0.4-0.3-0.5-1-0.2-1.4L32,483h-2c-0.4,0-0.7-0.2-0.9-0.6
	C28.9,482,29,481.7,29.2,481.4z"/>
<path fill="#444444" d="M101.3,477c1.1,0.7,2.4,1.1,3.7,1.1c3.9,0,7-3.1,7-7c0-3.9-3.1-7.1-7-7.1c-3.5,0-6.4,2.6-6.9,6H83
	c-0.4,0-0.7,0.2-0.9,0.6c-0.2,0.3-0.1,0.7,0.1,1L93,484.4v9.6h-6c-0.6,0-1,0.4-1,1c0,0.6,0.4,1,1,1h14c0.6,0,1-0.4,1-1
	c0-0.6-0.4-1-1-1h-6v-9.6L101.3,477z M88.5,476l-3.3-4h17.6l-3.4,4H88.5z"/>
<path fill="#444444" d="M160,464c-8.8,0-16,7.2-16,16s7.2,16,16,16s16-7.2,16-16S168.8,464,160,464z M165.3,471.3
	c0.4-0.4,1-0.4,1.4,0l1,1c0.4,0.4,0.4,1,0,1.4c-0.2,0.2-0.4,0.3-0.7,0.3s-0.5-0.1-0.7-0.3l-1-1C164.9,472.3,164.9,471.7,165.3,471.3
	z M159.3,469.3l1-1c0.4-0.4,1-0.4,1.4,0c0.4,0.4,0.4,1,0,1.4l-1,1c-0.2,0.2-0.4,0.3-0.7,0.3s-0.5-0.1-0.7-0.3
	C158.9,470.3,158.9,469.7,159.3,469.3z M160,475c2.8,0,5,2.2,5,5s-2.2,5-5,5s-5-2.2-5-5S157.2,475,160,475z M152.3,470.3
	c0.4-0.4,1-0.4,1.4,0l1,1c0.4,0.4,0.4,1,0,1.4c-0.2,0.2-0.4,0.3-0.7,0.3s-0.5-0.1-0.7-0.3l-1-1C151.9,471.3,151.9,470.7,152.3,470.3
	z M148.3,477.3l1-1c0.4-0.4,1-0.4,1.4,0c0.4,0.4,0.4,1,0,1.4l-1,1c-0.2,0.2-0.4,0.3-0.7,0.3s-0.5-0.1-0.7-0.3
	C147.9,478.3,147.9,477.7,148.3,477.3z M160,494c-5.4,0-10.1-3.1-12.4-7.5c0.6,0.1,1.2,0.2,1.8,0.2c2,0,3.9-0.7,5.3-2
	c1.3,1.4,3.1,2.3,5.2,2.3c2.1,0,3.9-0.9,5.2-2.3c1.6,1.6,3.6,2.3,5.5,2.3c0.5,0,1-0.1,1.5-0.2C169.8,491.1,165.3,494,160,494z
	 M171.7,477.7l-1,1c-0.2,0.2-0.4,0.3-0.7,0.3s-0.5-0.1-0.7-0.3c-0.4-0.4-0.4-1,0-1.4l1-1c0.4-0.4,1-0.4,1.4,0
	C172.1,476.7,172.1,477.3,171.7,477.7z"/>
<path fill="#444444" d="M211,472c0,2.2,1.2,4.1,3,5.2V493c0,1.7,1.3,3,3,3s3-1.3,3-3v-15.8c1.8-1,3-3,3-5.2v-2c0-3.3-2.7-6-6-6
	s-6,2.7-6,6V472z"/>
<path fill="#444444" d="M231,496c1.7,0,3-1.3,3-3v-15c1.7,0,3-1.3,3-3v-10c0-0.6-0.4-1-1-1s-1,0.4-1,1v6h-3v-6c0-0.6-0.4-1-1-1
	s-1,0.4-1,1v6h-3v-6c0-0.6-0.4-1-1-1s-1,0.4-1,1v10c0,1.7,1.3,3,3,3v15C228,494.7,229.3,496,231,496z"/>
<path fill="#444444" d="M273.4,486.9c0.5,1.9,1.3,3.6,1.8,4.5c0.4,0.6,1,1.1,1.7,1.2c0.1,0,0.2,0,0.3,0c0.6,0,1.2-0.2,1.7-0.7
	l4.6-4.9H274C273.8,487,273.6,487,273.4,486.9z"/>
<path fill="#444444" d="M298.8,492.6c0.1,0,0.2,0,0.3,0c0.7-0.1,1.4-0.5,1.7-1.2c0.6-1,1.3-2.6,1.8-4.5c-0.2,0.1-0.4,0.1-0.6,0.1
	h-9.5l4.6,4.9C297.6,492.4,298.2,492.6,298.8,492.6z"/>
<path fill="#444444" d="M272.5,484.3c0.5,0.5,1,0.7,1.5,0.7h10.7l-9.6-9.4c-0.1-0.1-0.2-0.3-0.4-0.4c-1.5,2.2-2.5,4.8-2.7,7.6
	C272,483.4,272.2,483.9,272.5,484.3z"/>
<path fill="#444444" d="M301.3,475.1c-0.1,0.1-0.2,0.3-0.3,0.4l-9.7,9.5H302c0.6,0,1.1-0.2,1.4-0.6c0.4-0.4,0.6-1,0.5-1.5
	C303.8,480,302.8,477.4,301.3,475.1z"/>
<path fill="#444444" d="M300.2,472.3c-0.1-0.7-0.4-1.4-1-1.8c-3-2.3-6.9-3.5-11.2-3.5s-8.2,1.2-11.2,3.5c-0.6,0.4-0.9,1.1-1,1.7
	c0,0.8,0.2,1.4,0.7,1.9l10.8,10.6c0.2,0.2,0.4,0.3,0.7,0.3s0.5-0.1,0.7-0.3l10.8-10.6C300,473.6,300.2,473,300.2,472.3z"/>
<path fill="#444444" d="M365.9,466c-1.4-1.4-3.4-2.2-5.4-2c-0.4,0-0.7,0.3-0.8,0.6c-0.2,0.3-0.1,0.7,0.1,1c1.2,1.5,1.7,4.9,1.2,5.4
	s-3.9,0-5.4-1.2c-0.3-0.2-0.7-0.3-1-0.1c-0.3,0.1-0.6,0.5-0.6,0.8c-0.1,2,0.6,4,2,5.4c1.3,1.3,3.1,2.1,4.9,2.1c1.3,0,2.5-0.4,3.6-1
	c0.2,1.2,0.1,2.3-0.5,3.2c-0.6,1-1.7,1.6-2.8,1.8c-2.5-1.6-5.8-3-9.3-3s-6.8,1.4-9.3,3c-1.2-0.2-2.2-0.8-2.8-1.8
	c-0.6-0.9-0.7-2-0.5-3.2c1.1,0.7,2.3,1,3.6,1c1.9,0,3.6-0.7,4.9-2.1c1.4-1.4,2.2-3.4,2-5.4c0-0.4-0.3-0.7-0.6-0.8
	c-0.3-0.2-0.7-0.1-1,0.1c-1.3,1.2-4.7,1.7-5.2,1.2s0-3.9,1.2-5.4c0.2-0.3,0.3-0.7,0.1-1c-0.1-0.3-0.5-0.6-0.8-0.6
	c-2-0.1-4,0.6-5.4,2c-2.6,2.6-2.7,6.8-0.4,9.5c-0.7,2.1-0.5,4.1,0.5,5.7c0.6,0.9,1.4,1.7,2.4,2.2c-2,1.5-3.2,2.8-3.3,2.9
	c-0.4,0.4-0.4,1,0,1.4c0.1,0.1,1.6,1.7,3.9,3.4c-1.2,1.3-1.2,3.6-1.2,3.9c0,0.6,0.4,1,1,1s1-0.4,1-1c0-0.7,0.2-2.3,0.9-2.8
	c2.5,1.5,5.7,2.8,9.1,2.8s6.6-1.3,9.1-2.8c0.7,0.6,0.9,2.1,0.9,2.8c0,0.6,0.4,1,1,1s1-0.4,1-1c0-0.3,0-2.6-1.2-4
	c2.3-1.6,3.8-3.2,3.9-3.4c0.4-0.4,0.4-1,0-1.4c-0.1,0-1.3-1.3-3.3-2.8c1-0.5,1.8-1.2,2.4-2.2c1-1.6,1.1-3.6,0.5-5.7
	C368.7,472.8,368.6,468.6,365.9,466z"/>
<path fill="#444444" d="M29,560c7.2,0,13-5.8,13-13s-5.8-13-13-13s-13,5.8-13,13S21.8,560,29,560z M32,542c0-0.6,0.4-1,1-1
	s1,0.4,1,1v1c0,0.6-0.4,1-1,1s-1-0.4-1-1V542z M32.3,548.3c0.4-0.4,1-0.4,1.4,0l1,1c0.4,0.4,0.4,1,0,1.4c-0.2,0.2-0.4,0.3-0.7,0.3
	s-0.5-0.1-0.7-0.3l-1-1C31.9,549.3,31.9,548.7,32.3,548.3z M29,552v1c0,0.6-0.4,1-1,1s-1-0.4-1-1v-1c0-0.6,0.4-1,1-1
	S29,551.4,29,552z M25.3,540.3c0.4-0.4,1-0.4,1.4,0l1,1c0.4,0.4,0.4,1,0,1.4c-0.2,0.2-0.4,0.3-0.7,0.3s-0.5-0.1-0.7-0.3l-1-1
	C24.9,541.3,24.9,540.7,25.3,540.3z M22.3,547.3l1-1c0.4-0.4,1-0.4,1.4,0c0.4,0.4,0.4,1,0,1.4l-1,1c-0.2,0.2-0.4,0.3-0.7,0.3
	s-0.5-0.1-0.7-0.3C21.9,548.3,21.9,547.7,22.3,547.3z"/>
<path fill="#444444" d="M39,528c-3.2,0-6,1.6-7.6,4.2c6.4,1,11.4,6.1,12.4,12.4c2.6-1.6,4.2-4.4,4.2-7.6C48,532,44,528,39,528z
	 M40.7,533.7c-0.2,0.2-0.4,0.3-0.7,0.3s-0.5-0.1-0.7-0.3l-1-1c-0.4-0.4-0.4-1,0-1.4c0.4-0.4,1-0.4,1.4,0l1,1
	C41.1,532.7,41.1,533.3,40.7,533.7z M44.7,536.7l-1,1c-0.2,0.2-0.4,0.3-0.7,0.3s-0.5-0.1-0.7-0.3c-0.4-0.4-0.4-1,0-1.4l1-1
	c0.4-0.4,1-0.4,1.4,0C45.1,535.7,45.1,536.3,44.7,536.7z"/>
<path fill="#444444" d="M83,559h22c1.7,0,3-1.3,3-3v-1h-9.2c4-1.7,6.8-5.5,7.2-10h1c1.7,0,3-1.3,3-3v-4c0-0.6-0.4-1-1-1H83
	c-0.6,0-1,0.4-1,1v6c0,4.9,3,9.1,7.2,11H80v1C80,557.7,81.3,559,83,559z M106,539h2v3c0,0.6-0.4,1-1,1h-1V539z"/>
<path fill="#444444" d="M93,529v3c0,0.6,0.4,1,1,1s1-0.4,1-1v-3c0-0.6-0.4-1-1-1S93,528.4,93,529z"/>
<path fill="#444444" d="M88,531v3c0,0.6,0.4,1,1,1s1-0.4,1-1v-3c0-0.6-0.4-1-1-1S88,530.4,88,531z"/>
<path fill="#444444" d="M98,531v3c0,0.6,0.4,1,1,1s1-0.4,1-1v-3c0-0.6-0.4-1-1-1S98,530.4,98,531z"/>
<path fill="#444444" d="M171,541h-0.4l0.3-3h-21.7l0.3,3H149c-0.3,0-0.5,0.1-0.7,0.3s-0.3,0.5-0.3,0.8l1,12c0,0.5,0.5,0.9,1,0.9h0.6
	h18.7h0.7c0.5,0,1-0.4,1-0.9l1-12c0-0.3-0.1-0.6-0.3-0.8S171.3,541,171,541z M160,551c-1.7,0-3-1.3-3-3s1.3-3,3-3s3,1.3,3,3
	S161.7,551,160,551z"/>
<path fill="#444444" d="M173,531h-5.4l-1.3-2.5c-0.1-0.3-0.5-0.5-0.8-0.5h-11c-0.4,0-0.7,0.2-0.9,0.5l-1.2,2.5H147c-0.6,0-1,0.4-1,1
	v3c0,0.6,0.4,1,1,1h26c0.6,0,1-0.4,1-1v-3C174,531.4,173.6,531,173,531z"/>
<path fill="#444444" d="M151,559.1c0,0.5,0.5,0.9,1,0.9h16c0.5,0,1-0.4,1-0.9l0.2-2.1h-18.4L151,559.1z"/>
<path fill="#444444" d="M237,539h-2v-7c0-0.6-0.4-1-1-1h-3v-1c0-0.6-0.4-1-1-1h-4c-0.6,0-1,0.4-1,1v3h-2v-4c0-0.6-0.4-1-1-1h-4
	c-0.6,0-1,0.4-1,1v2h-3c-0.6,0-1,0.4-1,1v7h-2c-0.3,0-0.6,0.1-0.8,0.4c-0.2,0.2-0.2,0.5-0.2,0.8l4,19c0.1,0.5,0.5,0.8,1,0.8h18
	c0.5,0,0.9-0.3,1-0.8l4-19c0-0.3,0-0.6-0.2-0.8C237.6,539.1,237.3,539,237,539z M217,539h-2v-6h2V539z M223,535h2v4h-2V535z
	 M219,530h2v9h-2V530z M224,555c-2.8,0-5-2.2-5-5s2.2-5,5-5s5,2.2,5,5S226.8,555,224,555z M229,539h-2v-8h2V539z M233,539h-2v-6h2
	V539z"/>
<path fill="#444444" d="M274.7,557.3c1.8,1.8,4.2,2.7,6.5,2.7c2.4,0,4.7-0.9,6.5-2.7c2.2-2.2,3.1-5.3,2.5-8.3l3.5-3.4l-7.2-7.2
	l-3.5,3.4c-3-0.6-6.1,0.3-8.3,2.5C271.1,547.9,271.1,553.7,274.7,557.3z"/>
<path fill="#444444" d="M302.7,532.2c-0.5-0.5-1.1-0.9-1.8-1.1c-0.2-0.7-0.6-1.3-1.1-1.8c-1.7-1.7-4.5-1.7-6.3,0
	c-1.3,1.3-1.6,3.2-1,4.8l-3.8,3.8l5.3,5.3l3.8-3.8c1.6,0.7,3.5,0.3,4.8-1C304.4,536.7,304.4,533.9,302.7,532.2z"/>
<path fill="#444444" d="M365,553c0-0.6-0.4-1-1-1h-24c-0.6,0-1,0.4-1,1c0,3.3,2.7,6,6,6h14C362.3,559,365,556.3,365,553z"/>
<path fill="#444444" d="M364.5,543h-3.2l-4.3,3.2l-4.3-3.2h-13.2c-1.9,0-3.5,1.6-3.5,3.5c0,1.9,1.6,3.5,3.5,3.5h25
	c1.9,0,3.5-1.6,3.5-3.5C368,544.6,366.4,543,364.5,543z"/>
<path fill="#444444" d="M354,529h-4c-6.1,0-11,4.9-11,11c0,0.6,0.4,1,1,1h24c0.6,0,1-0.4,1-1C365,533.9,360.1,529,354,529z
	 M347.7,536.7c-0.2,0.2-0.4,0.3-0.7,0.3s-0.5-0.1-0.7-0.3l-1-1c-0.4-0.4-0.4-1,0-1.4c0.4-0.4,1-0.4,1.4,0l1,1
	C348.1,535.7,348.1,536.3,347.7,536.7z M352.7,533.7l-1,1c-0.2,0.2-0.4,0.3-0.7,0.3s-0.5-0.1-0.7-0.3c-0.4-0.4-0.4-1,0-1.4l1-1
	c0.4-0.4,1-0.4,1.4,0C353.1,532.7,353.1,533.3,352.7,533.7z M359,535c0,0.6-0.4,1-1,1s-1-0.4-1-1v-1c0-0.6,0.4-1,1-1s1,0.4,1,1V535z
	"/>
<path fill="#444444" d="M47,593.2c-2.6,0-4.5,1-5.7,2.8c-1.2-0.7-2.6-1-4-1c-2,0.1-3.9,1.1-5.1,2.7l-1.9,2.4l4.7,4.6
	c0.4,0.4,0.4,1,0,1.4c-0.2,0.2-0.5,0.3-0.7,0.3c-0.3,0-0.5-0.1-0.7-0.3l-4.6-4.3l-9.2,11.7l2.9,2.8c0.4,0.4,0.4,1,0,1.4
	c-0.2,0.2-0.4,0.3-0.7,0.3s-0.5-0.1-0.7-0.3l-2.7-2.7l-1.7,2.2c-1.3,1.6-1.1,3.9,0.3,5.4c0.8,0.8,1.8,1.2,2.9,1.2
	c0.9,0,1.8-0.3,2.5-0.9l9-7l-3.8-3.9c-0.4-0.4-0.4-1,0-1.4c0.4-0.4,1-0.4,1.4,0l3.9,4l9-7c1.6-1.2,2.6-3.1,2.7-5.1
	c0.1-1.9-0.6-3.8-1.9-5.2c0.9-1.4,2.2-2.1,4.1-2.1c0.6,0,1-0.4,1-1C48,593.6,47.6,593.2,47,593.2z"/>
<path fill="#444444" d="M96,612c0,2.2-1.8,4-4,4s-4-1.8-4-4v-4h-8v11c0,0.6,0.4,1,1,1h30c0.6,0,1-0.4,1-1v-11H96V612z"/>
<path fill="#444444" d="M111.4,604.1l-19-8c-0.1-0.1-0.3-0.1-0.4-0.1c-8.2,0-12,4.7-12,9c0,0.6,0.4,1,1,1h9v6c0,1.1,0.9,2,2,2
	s2-0.9,2-2v-6h17c0.5,0,0.9-0.3,1-0.8S111.8,604.3,111.4,604.1z"/>
<path fill="#444444" d="M164,597c0.6,0,1-0.4,1-1v-3c0-0.6-0.4-1-1-1h-8c-0.6,0-1,0.4-1,1v3c0,0.6,0.4,1,1,1H164z"/>
<path fill="#444444" d="M164,606.1V599h-8v7.1c-2.8,0.5-5,2.9-5,5.9v1h18v-1C169,609,166.8,606.6,164,606.1z"/>
<path fill="#444444" d="M151,623c0,0.6,0.4,1,1,1h16c0.6,0,1-0.4,1-1v-8h-18V623z"/>
<path fill="#444444" d="M236,606h-4v-1c1.2-0.9,2-2.3,2-4c0-3-2.6-5.4-5.6-5c-1.1-2.5-3.6-4-6.4-4s-5.2,1.6-6.4,4
	c-3-0.4-5.6,2-5.6,5c0,1.6,0.8,3.1,2,4v15c0,2.2,1.8,4,4,4h12c2.2,0,4-1.8,4-4v-4h2c1.7,0,3-1.3,3-3v-6C237,606.4,236.6,606,236,606
	z M229,604h-7c-0.6,0-1,0.4-1,1v6.5c0,0.8-0.7,1.5-1.5,1.5s-1.5-0.7-1.5-1.5V605c0-0.6-0.4-1-1-1h-2c-1.6,0-3-1.3-3-3
	c0-1,0.6-1.9,1.4-2.4c0.9-0.6,1.6-0.8,2.5-0.4c0.3,0.1,0.5,0.1,0.8-0.1c0.3-0.1,0.5-0.3,0.5-0.6c0.3-1,0.7-1.9,1.5-2.4
	c3.3-2.2,7-0.6,8,2.5c0.2,0.2,0.3,0.4,0.6,0.5c0.2,0.1,0.5,0.1,0.8,0.1c1-0.3,1.7-0.2,2.5,0.4c0.8,0.5,1.4,1.4,1.4,2.4
	C232,602.6,230.6,604,229,604z M235,613c0,0.6-0.4,1-1,1h-2v-6h3V613z"/>
<path fill="#444444" d="M301,612.1h-0.2c-1.5,0.4-6.1,1.5-13.8-1.9c-7.8-3.5-8.4-7.3-9-15.5c0-0.3-0.1-0.5-0.3-0.7s-0.5-0.3-0.8-0.2
	l-3.4,0.4c-0.5,0.1-0.9,0.5-0.9,1l0.2,4.8c-0.3,1-1.5,6.2-0.3,11.3c1.6,6.9,9.7,10.7,16.9,10.9c0.4,0,0.7,0,1,0
	c6.2,0,11.1-1.5,12.7-4c1.3-1.8,1-3.9,0.2-5.1C302.7,612.3,301.8,611.9,301,612.1z"/>
<path fill="#444444" d="M301.9,603.4c-0.8-0.7-1.7-0.8-2.5-0.4h-0.1c-1.4,0.7-5.6,2.9-13.9,1.4c-1.4-0.3-2.7-0.6-3.8-1
	c1.1,2.1,2.9,3.5,6.2,5s6.4,2.2,9.2,2.2c1.6,0,2.7-0.3,3.3-0.4h0.2c0.3-0.1,0.6-0.1,0.9-0.1c0.2,0,0.3,0,0.5,0
	c0.5-0.6,0.8-1.1,1.1-1.7C303.8,606.3,303,604.3,301.9,603.4z"/>
<path fill="#444444" d="M351,593v5c0,0.6,0.4,1,1,1s1-0.4,1-1v-5c0-0.6-0.4-1-1-1S351,592.4,351,593z"/>
<path fill="#444444" d="M346,596v4c0,0.6,0.4,1,1,1s1-0.4,1-1v-4c0-0.6-0.4-1-1-1S346,595.4,346,596z"/>
<path fill="#444444" d="M356,596v4c0,0.6,0.4,1,1,1s1-0.4,1-1v-4c0-0.6-0.4-1-1-1S356,595.4,356,596z"/>
<path fill="#444444" d="M367,603h-2h-26h-2c-0.6,0-1,0.4-1,1c0,0.6,0.4,1,1,1h1v1c0,5.7,3.4,10.6,8.4,12.8l-2.2,3.7
	c-0.3,0.5-0.2,1.1,0.3,1.4c0.1,0.1,0.3,0.1,0.5,0.1c0.3,0,0.7-0.2,0.9-0.5l2.4-4c1.2,0.3,2.4,0.5,3.7,0.5s2.5-0.2,3.7-0.5l2.4,4
	c0.2,0.3,0.5,0.5,0.9,0.5c0.2,0,0.4,0,0.5-0.1c0.5-0.3,0.6-0.9,0.3-1.4l-2.2-3.7c5-2.2,8.4-7.1,8.4-12.8v-1h1c0.6,0,1-0.4,1-1
	C368,603.4,367.6,603,367,603z M354,609h-4c-0.6,0-1-0.4-1-1c0-0.6,0.4-1,1-1h4c0.6,0,1,0.4,1,1C355,608.6,354.6,609,354,609z"/>
</svg>
